
<svg version="1.0" xmlns="http://www.w3.org/2000/svg"
 width="298.000000pt" height="299.000000pt" viewBox="0 0 298.000000 299.000000"
 preserveAspectRatio="xMidYMid meet">

<g transform="translate(0.000000,299.000000) scale(0.100000,-0.100000)"
fill="#000000" stroke="none">
<path d="M100 2625 l0 -235 238 0 237 0 0 235 0 235 -237 0 -238 0 0 -235z
m410 -5 l0 -170 -170 0 -170 0 0 170 0 170 170 0 170 0 0 -170z"/>
<path d="M230 2625 l0 -105 105 0 105 0 0 105 0 105 -105 0 -105 0 0 -105z"/>
<path d="M720 2825 c0 -33 -2 -35 -35 -35 -32 0 -35 -2 -35 -30 0 -28 3 -30
35 -30 32 0 35 2 35 30 0 27 3 30 30 30 l30 0 0 -100 0 -100 -30 0 c-28 0 -30
3 -30 35 0 33 -2 35 -35 35 -33 0 -35 -2 -35 -35 0 -33 2 -35 35 -35 33 0 35
-2 35 -35 0 -33 -2 -35 -35 -35 l-35 0 0 -65 0 -65 35 0 c32 0 35 2 35 30 0
27 3 30 30 30 l30 0 0 -70 0 -70 -135 0 -135 0 0 -35 c0 -33 2 -35 33 -35 32
0 33 -2 29 -30 l-4 -30 76 0 76 0 0 30 c0 27 3 30 30 30 27 0 30 -3 30 -30 0
-28 3 -30 35 -30 33 0 35 -2 35 -35 0 -34 1 -35 40 -35 l40 0 0 65 0 65 65 0
65 0 0 -30 c0 -28 3 -30 35 -30 33 0 35 -2 35 -35 0 -33 -2 -35 -35 -35 -33 0
-35 -2 -35 -35 l0 -35 70 0 70 0 0 35 c0 33 2 35 35 35 33 0 35 2 35 35 l0 35
-70 0 -70 0 0 30 0 30 135 0 135 0 0 -30 c0 -27 -3 -30 -30 -30 -28 0 -30 -3
-30 -35 0 -32 2 -35 30 -35 28 0 30 3 30 35 0 34 1 35 40 35 38 0 40 2 40 30
0 27 3 30 30 30 28 0 30 3 30 35 0 32 -2 35 -30 35 -28 0 -30 -3 -30 -35 0
-34 -1 -35 -40 -35 -39 0 -40 1 -40 35 l0 34 -97 3 -98 3 -3 38 c-3 36 -3 37
32 37 l36 0 0 65 0 65 35 0 35 0 0 -65 0 -65 30 0 30 0 0 100 0 100 70 0 70 0
0 -35 c0 -32 -2 -35 -30 -35 l-30 0 0 -65 0 -65 29 0 c27 0 30 -3 33 -37 3
-35 6 -38 36 -41 29 -3 32 -6 32 -38 0 -32 2 -34 35 -34 32 0 35 -2 35 -30 0
-28 3 -30 35 -30 32 0 35 2 35 30 l0 30 70 0 70 0 0 -30 c0 -28 -3 -30 -35
-30 -33 0 -35 -2 -35 -35 l0 -35 -170 0 -170 0 0 -35 0 -34 -67 -3 -68 -3 -3
-32 -3 -33 -175 0 -174 0 0 35 0 36 -102 -3 -103 -3 -3 -67 -3 -68 -169 0
-169 0 -3 -67 -3 -68 -100 0 -100 0 -3 33 c-3 31 -2 32 32 32 l36 0 0 70 0 70
69 0 70 0 3 33 c3 28 7 32 36 35 31 3 32 2 32 -32 l0 -36 71 0 70 0 -3 33 -3
32 -67 3 -68 3 0 34 c0 32 3 35 29 35 23 0 30 5 34 27 3 16 3 31 0 35 -2 5
-33 8 -69 8 l-64 0 0 -35 c0 -32 -2 -35 -30 -35 -28 0 -30 3 -30 35 0 34 -1
35 -40 35 -38 0 -40 2 -40 30 l0 30 70 0 70 0 0 35 0 35 -170 0 -170 0 0 -35
c0 -33 2 -35 35 -35 32 0 35 -2 35 -30 0 -28 -3 -30 -35 -30 -33 0 -35 -2 -35
-35 0 -33 2 -35 35 -35 33 0 35 -2 35 -35 0 -33 -2 -35 -35 -35 -33 0 -35 -2
-35 -35 0 -33 2 -35 35 -35 33 0 35 -2 35 -35 0 -33 -2 -35 -35 -35 l-36 0 3
-67 c3 -60 5 -68 23 -69 11 -1 26 -2 33 -3 7 -1 12 -15 12 -36 0 -33 -2 -35
-35 -35 l-35 0 0 -65 0 -65 35 0 c33 0 35 -2 35 -35 0 -33 -2 -35 -35 -35
l-35 0 0 -175 0 -175 35 0 c33 0 35 -2 35 -35 0 -32 2 -35 30 -35 l30 0 0
-135 0 -135 35 0 35 0 0 -70 0 -70 40 0 c39 0 40 -1 40 -35 0 -32 2 -35 30
-35 28 0 30 3 30 35 0 33 2 35 35 35 33 0 35 -2 35 -35 0 -32 2 -35 30 -35 28
0 30 3 30 35 0 32 -2 35 -30 35 -28 0 -30 3 -30 35 0 32 2 35 30 35 23 0 30 5
30 19 0 11 3 26 6 35 5 13 -1 16 -30 16 -33 0 -36 2 -36 30 l0 30 135 0 135 0
0 40 0 40 -65 0 -65 0 0 35 0 35 100 0 100 0 0 30 0 30 70 0 70 0 0 35 0 34
-67 3 -68 3 -5 35 c-4 31 -8 35 -35 35 -27 0 -30 4 -33 33 -3 31 -2 32 32 32
34 0 36 2 36 35 l0 35 -100 0 -100 0 0 70 0 70 35 0 c33 0 35 2 35 35 l0 35
65 0 65 0 0 30 c0 28 2 30 40 30 l40 0 0 -65 0 -64 -72 -3 -73 -3 -3 -32 -3
-33 75 0 76 0 0 -35 c0 -32 2 -35 30 -35 28 0 30 3 30 35 0 32 -2 35 -30 35
-28 0 -30 3 -30 35 l0 35 65 0 65 0 0 -35 c0 -33 2 -35 35 -35 33 0 35 -2 35
-35 0 -33 -2 -35 -35 -35 -33 0 -35 -2 -35 -35 0 -33 2 -35 36 -35 34 0 35 -1
32 -32 -3 -29 -7 -33 -33 -33 -27 -1 -30 -4 -33 -38 l-3 -37 140 0 141 0 0
-65 0 -65 30 0 30 0 0 135 0 135 -30 0 c-28 0 -30 3 -30 35 0 32 2 35 30 35
28 0 30 3 30 35 0 32 -2 35 -30 35 -28 0 -30 -3 -30 -35 l0 -35 -70 0 -70 0 0
35 c0 33 2 35 35 35 33 0 35 2 35 35 l0 35 65 0 65 0 0 35 c0 32 -2 35 -30 35
l-30 0 0 65 0 65 70 0 70 0 0 -135 0 -135 30 0 c28 0 30 -3 30 -35 0 -32 -2
-35 -30 -35 -28 0 -30 -3 -30 -35 0 -32 2 -35 30 -35 26 0 30 -3 30 -29 0 -29
14 -41 51 -41 15 0 19 -7 19 -35 l0 -35 -65 0 -65 0 0 -35 c0 -32 2 -35 30
-35 27 0 30 -3 30 -30 0 -27 -3 -30 -30 -30 -28 0 -30 -3 -30 -35 0 -32 2 -35
30 -35 28 0 30 -2 30 -40 0 -38 -2 -40 -30 -40 -27 0 -30 -3 -30 -30 0 -28 -2
-30 -40 -30 l-40 0 0 -70 0 -70 -65 0 -65 0 0 35 c0 33 -2 35 -35 35 l-35 0 0
-70 0 -70 35 0 c33 0 35 -2 35 -35 l0 -35 -105 0 -105 0 0 35 c0 33 2 35 35
35 l35 0 0 105 0 105 105 0 105 0 0 30 c0 27 3 30 30 30 28 0 30 2 30 41 0 38
-1 40 -27 37 -24 -3 -28 -8 -31 -40 l-3 -38 -140 0 -139 0 0 -135 0 -135 -65
0 -65 0 0 70 0 70 30 0 c28 0 30 3 30 35 l0 35 -170 0 -170 0 0 -35 c0 -33 2
-35 35 -35 l35 0 0 -70 0 -70 -35 0 -35 0 0 -70 0 -70 35 0 35 0 0 70 0 70 30
0 c28 0 30 -3 30 -35 l0 -35 75 0 75 0 0 -35 c0 -34 -1 -35 -40 -35 -38 0 -40
-2 -40 -29 0 -26 -4 -30 -32 -33 -30 -3 -33 -6 -33 -38 l0 -35 73 -3 72 -3 0
-29 0 -30 65 0 65 0 0 -35 c0 -33 2 -35 35 -35 l35 0 0 -70 0 -70 135 0 135 0
0 135 0 135 70 0 70 0 0 -30 c0 -27 -3 -30 -30 -30 -28 0 -30 -3 -30 -35 0
-32 2 -35 30 -35 28 0 30 -3 30 -35 0 -32 -2 -35 -30 -35 -28 0 -30 -3 -30
-35 0 -32 2 -35 30 -35 28 0 30 3 30 35 0 33 2 35 35 35 33 0 35 2 35 35 0 33
-2 35 -35 35 -33 0 -35 2 -35 35 0 33 2 35 35 35 32 0 35 2 35 30 0 28 3 30
35 30 32 0 35 -2 35 -30 0 -28 3 -30 35 -30 33 0 35 -2 35 -35 0 -33 2 -35 35
-35 l35 0 0 65 0 64 103 3 102 3 0 35 c0 33 -2 35 -37 38 -35 3 -38 6 -38 33
0 27 2 29 40 29 39 0 40 1 40 35 0 34 -1 35 -40 35 -39 0 -40 -1 -40 -35 0
-32 -2 -35 -30 -35 -27 0 -30 -3 -30 -30 0 -28 -3 -30 -35 -30 -32 0 -35 2
-35 30 l0 30 -70 0 -70 0 0 35 c0 33 2 35 35 35 33 0 35 2 35 35 0 33 2 35 35
35 33 0 35 -2 35 -35 0 -33 2 -35 35 -35 l35 0 0 70 0 70 -70 0 -70 0 0 35 c0
33 2 35 35 35 33 0 35 2 35 35 0 33 2 35 35 35 33 0 35 -2 35 -35 0 -32 2 -35
30 -35 29 0 29 0 32 -68 l3 -67 70 0 70 0 3 33 c3 31 2 32 -32 32 -34 0 -36 2
-36 35 0 33 2 35 35 35 33 0 35 2 35 35 l0 35 -105 0 -105 0 0 30 c0 27 3 30
30 30 l30 0 0 75 0 75 40 0 c38 0 40 2 40 30 0 28 3 30 35 30 32 0 35 -2 35
-30 0 -27 3 -30 30 -30 28 0 30 -3 30 -35 l0 -35 -65 0 -65 0 0 -40 0 -40 65
0 65 0 0 40 c0 39 1 40 35 40 l35 0 0 -70 0 -70 -35 0 c-33 0 -35 -2 -35 -35
0 -33 2 -35 35 -35 l35 0 0 -70 0 -70 -35 0 c-33 0 -35 -2 -35 -35 0 -33 2
-35 35 -35 l35 0 0 -65 0 -65 35 0 c34 0 35 -1 35 -40 l0 -40 -70 0 -70 0 0
40 c0 38 -2 40 -30 40 -28 0 -30 -2 -30 -40 0 -39 -1 -40 -35 -40 -32 0 -35
-2 -35 -30 0 -28 -2 -30 -40 -30 l-40 0 0 -70 0 -70 -30 0 c-28 0 -30 -3 -30
-35 l0 -36 103 3 102 3 3 68 3 67 -36 0 c-33 0 -35 2 -35 35 0 33 2 35 35 35
32 0 35 2 35 30 0 27 3 30 30 30 27 0 30 -3 30 -30 l0 -30 70 0 70 0 0 30 0
30 138 0 139 0 1 -30 1 -30 -105 0 -104 0 0 -35 0 -35 -105 0 -105 0 0 -35 0
-35 105 0 105 0 0 -35 c0 -33 2 -35 35 -35 33 0 35 2 35 35 0 33 2 35 35 35
33 0 35 2 35 35 l0 35 100 0 100 0 0 65 0 65 35 0 c32 0 35 -2 35 -30 l0 -30
70 0 70 0 0 29 c0 26 -4 30 -32 33 -30 3 -33 6 -36 41 l-3 37 -100 0 -99 0 0
65 0 65 30 0 c28 0 30 3 30 35 0 33 2 35 35 35 l35 0 0 -70 0 -70 35 0 c33 0
35 2 35 35 0 33 2 35 35 35 l35 0 0 105 0 105 -35 0 c-33 0 -35 -2 -35 -35 l0
-35 -100 0 -100 0 0 35 0 35 -105 0 -105 0 0 -35 0 -35 -70 0 -70 0 0 35 c0
33 -2 35 -35 35 -33 0 -35 2 -35 35 l0 35 105 0 105 0 0 30 c0 29 0 29 -67 32
l-68 3 0 35 c0 32 3 35 33 38 29 3 32 6 32 38 l0 34 70 0 69 0 3 -72 3 -73 33
-3 c30 -3 33 -6 30 -30 -3 -25 0 -27 35 -30 35 -3 37 -2 37 27 0 29 -3 31 -35
31 l-34 0 -3 73 -3 72 -32 3 -33 3 0 65 0 64 35 0 c33 0 35 -2 35 -35 0 -33 2
-35 35 -35 33 0 35 2 35 35 l0 35 65 0 65 0 0 35 c0 19 -4 35 -10 36 -5 0 -34
1 -62 1 l-53 1 -3 -37 c-3 -34 -5 -36 -38 -36 -32 0 -34 2 -34 35 0 24 -5 35
-15 36 -50 4 -50 4 -53 -33 -3 -36 -5 -38 -38 -38 -32 0 -34 -2 -34 -35 0 -33
-2 -35 -35 -35 -32 0 -35 -2 -35 -30 l0 -30 -70 0 -70 0 0 30 c0 28 3 30 35
30 33 0 35 2 35 35 l0 35 -70 0 -70 0 0 -35 c0 -32 -2 -35 -30 -35 -28 0 -30
3 -30 35 0 33 -2 35 -35 35 l-35 0 0 70 0 70 99 0 100 0 3 -32 c3 -30 6 -33
36 -34 30 -1 32 1 32 33 0 31 -2 33 -35 33 -33 0 -35 2 -35 35 l0 35 105 0
105 0 0 35 0 35 -140 0 -140 0 0 35 c0 33 2 35 35 35 33 0 35 2 35 35 0 33 -2
35 -35 35 l-35 0 0 65 0 65 70 0 70 0 0 -35 c0 -33 2 -35 35 -35 32 0 35 -2
35 -30 0 -28 3 -30 35 -30 32 0 35 2 35 30 l0 30 105 0 105 0 0 -65 0 -65 -34
0 c-32 0 -35 -3 -38 -32 -3 -29 -7 -33 -35 -36 l-33 -3 0 -70 0 -69 36 0 c28
0 35 4 33 18 -4 45 0 52 36 52 33 0 35 -2 35 -35 l0 -35 65 0 65 0 0 35 c0 33
2 35 35 35 l35 0 0 135 0 135 35 0 c33 0 35 2 35 35 0 33 -2 35 -35 35 -33 0
-35 -2 -35 -35 0 -33 -2 -35 -35 -35 l-35 0 0 -135 0 -135 -65 0 -65 0 0 35
c0 32 2 35 30 35 l30 0 0 100 0 100 -30 0 c-28 0 -30 3 -30 35 l0 35 65 0 65
0 0 35 0 34 -62 3 -63 3 -3 68 -3 67 31 0 c28 0 30 3 30 35 0 32 -2 35 -30 35
-28 0 -30 3 -30 35 0 32 2 35 30 35 28 0 30 3 30 35 0 33 2 35 35 35 33 0 35
-2 35 -35 l0 -35 70 0 70 0 0 35 c0 33 -2 35 -35 35 -33 0 -35 2 -35 35 0 33
2 35 35 35 32 0 35 2 35 30 0 28 -3 30 -35 30 -33 0 -35 2 -35 35 0 33 -2 35
-35 35 -33 0 -35 -2 -35 -35 0 -33 2 -35 35 -35 32 0 35 -2 35 -30 l0 -30
-100 0 -100 0 0 30 c0 27 3 30 30 30 28 0 30 3 30 35 0 32 -2 35 -30 35 -28 0
-30 -3 -30 -35 0 -33 -2 -35 -35 -35 -33 0 -35 2 -35 35 0 33 -2 35 -35 35
-33 0 -35 -2 -35 -35 0 -33 -2 -35 -35 -35 -33 0 -35 2 -35 34 0 32 -3 35 -32
38 l-33 3 -3 273 -2 272 -105 0 -105 0 0 -35 0 -35 -105 0 -105 0 0 -65 0 -65
-65 0 -65 0 0 65 0 65 -35 0 c-33 0 -35 2 -35 35 0 33 -2 35 -35 35 -33 0 -35
-2 -35 -35 0 -33 2 -35 35 -35 l35 0 0 -65 0 -65 -35 0 c-33 0 -35 2 -35 35
l0 35 -70 0 -70 0 0 -35 c0 -32 -2 -35 -30 -35 -28 0 -30 3 -30 35 l0 35 -70
0 -70 0 0 65 0 65 -35 0 -35 0 0 -100 0 -100 -35 0 -35 0 0 65 0 65 -35 0
c-33 0 -35 2 -35 35 l0 35 -70 0 -70 0 0 -100 0 -100 -30 0 -30 0 0 65 0 65
-75 0 -75 0 0 35 c0 32 -2 35 -30 35 -28 0 -30 -3 -30 -35z m1580 -135 l0
-100 -70 0 -70 0 0 -35 0 -35 70 0 70 0 0 -140 0 -140 -70 0 -70 0 0 -65 0
-65 35 0 c33 0 35 2 35 35 l0 35 105 0 105 0 0 -35 c0 -33 2 -35 35 -35 33 0
35 2 35 35 l0 35 70 0 70 0 0 -35 c0 -33 -2 -35 -35 -35 l-34 0 -3 -67 -3 -68
-32 -3 c-30 -3 -33 -6 -33 -38 0 -32 -2 -34 -35 -34 -33 0 -35 2 -35 35 0 33
-2 35 -34 35 -32 0 -35 3 -38 33 -3 28 -7 32 -35 35 -32 3 -33 2 -33 -32 l0
-36 -70 0 -70 0 0 -70 0 -70 35 0 c33 0 35 2 35 35 l0 35 70 0 69 0 3 -67 3
-68 33 -3 c31 -3 32 -2 32 32 0 34 2 36 34 36 32 0 35 -3 38 -32 3 -29 7 -33
35 -36 28 -3 31 -6 30 -35 l-2 -32 -67 -3 -68 -3 0 -34 c0 -33 -2 -35 -35 -35
-33 0 -35 2 -35 35 0 33 -2 35 -35 35 -33 0 -35 2 -35 35 l0 35 -100 0 -100 0
0 -35 c0 -33 -2 -35 -35 -35 -33 0 -35 2 -35 35 0 33 2 35 35 35 33 0 35 2 35
35 0 33 -2 35 -35 35 -33 0 -35 2 -35 35 0 34 -1 35 -40 35 -39 0 -40 -1 -40
-35 0 -32 -2 -35 -30 -35 -28 0 -30 -3 -30 -35 0 -32 2 -35 30 -35 28 0 30 -3
30 -35 0 -32 -2 -35 -30 -35 -28 0 -30 3 -30 35 0 21 -5 35 -12 36 -7 0 -38 1
-68 2 -54 2 -55 2 -58 35 -3 29 -6 32 -37 32 -31 0 -34 -3 -37 -32 -3 -29 -7
-33 -35 -36 l-33 -3 0 -100 0 -99 35 0 c32 0 35 2 35 30 0 28 3 30 35 30 33 0
35 2 35 35 0 33 2 35 35 35 33 0 35 -2 35 -35 0 -33 2 -35 35 -35 l35 0 0 -65
0 -65 -70 0 -70 0 0 35 c0 33 -2 35 -35 35 -33 0 -35 -2 -35 -35 l0 -35 -70 0
-70 0 0 100 0 100 -30 0 c-28 0 -30 3 -30 35 l0 35 65 0 65 0 0 35 0 35 -65 0
-65 0 0 35 0 35 -70 0 -70 0 0 -71 0 -70 -32 3 c-29 3 -33 7 -36 36 -3 29 -6
32 -38 32 l-34 0 0 -70 0 -70 35 0 35 0 0 -100 0 -100 -105 0 -105 0 0 35 0
35 70 0 70 0 0 30 c0 28 -3 30 -35 30 l-35 0 0 105 0 105 -35 0 -35 0 0 -70 0
-70 -65 0 -65 0 0 70 0 70 65 0 65 0 0 35 0 35 140 0 140 0 0 35 0 35 70 0 70
0 0 35 c0 32 2 35 30 35 28 0 30 -3 30 -35 0 -33 2 -35 34 -35 32 0 35 3 38
33 l3 32 65 0 65 0 3 -32 3 -33 205 0 204 0 0 35 c0 32 -2 35 -30 35 -28 0
-30 3 -30 35 0 33 -2 35 -35 35 -33 0 -35 2 -35 35 0 33 2 35 35 35 32 0 35 2
35 30 0 28 -3 30 -35 30 -33 0 -35 2 -35 35 0 34 -1 35 -40 35 -39 0 -40 -1
-40 -35 0 -32 -2 -35 -30 -35 -28 0 -30 3 -30 35 0 32 2 35 30 35 l30 0 0 70
0 70 40 0 c38 0 40 -2 40 -30 0 -28 3 -30 35 -30 l35 0 0 100 0 100 -75 0 -75
0 0 -35 c0 -32 -2 -35 -30 -35 l-29 0 -3 -102 -3 -103 -100 0 -100 0 -3 68 -3
67 -34 0 c-32 0 -35 -2 -35 -30 0 -28 -3 -30 -35 -30 -32 0 -35 2 -35 30 0 28
3 30 35 30 33 0 35 2 35 35 l0 35 139 0 140 0 3 33 c2 27 8 33 31 35 24 3 27
8 27 38 l0 34 75 0 75 0 0 35 c0 32 2 35 30 35 27 0 30 3 30 30 l0 30 70 0 70
0 0 -100z m-1170 5 c0 -33 -2 -35 -35 -35 -33 0 -35 -2 -35 -35 0 -33 2 -35
35 -35 l35 0 0 -70 0 -70 35 0 c32 0 35 -2 35 -30 0 -28 -3 -30 -35 -30 -32 0
-35 2 -35 30 0 28 -3 30 -35 30 l-35 0 0 -70 0 -70 35 0 c33 0 35 -2 35 -35 0
-33 -2 -35 -35 -35 -33 0 -35 2 -35 35 l0 35 -55 0 c-30 0 -58 0 -62 0 -5 0
-9 -16 -11 -35 -3 -35 -4 -36 -40 -33 l-37 3 -3 103 -3 102 -34 0 c-33 0 -35
2 -35 35 l0 34 73 3 72 3 3 33 c3 31 3 32 -38 32 -41 0 -41 1 -38 33 3 29 6
32 41 35 36 3 37 3 37 -32 0 -33 2 -36 30 -36 28 0 30 3 30 35 0 33 2 35 35
35 33 0 35 2 35 35 0 33 2 35 35 35 33 0 35 -2 35 -35z m270 -70 l0 -35 -65 0
-65 0 0 -35 c0 -33 -2 -35 -35 -35 -33 0 -35 2 -35 35 0 33 2 35 35 35 33 0
35 2 35 35 l0 35 65 0 65 0 0 -35z m280 0 l0 -35 -70 0 -70 0 0 35 0 35 70 0
70 0 0 -35z m140 0 c0 -33 -2 -35 -35 -35 -33 0 -35 2 -35 35 0 33 2 35 35 35
33 0 35 -2 35 -35z m-1520 -480 c0 -34 1 -35 40 -35 39 0 40 -1 40 -35 l0 -35
-75 0 -75 0 0 35 c0 32 -2 35 -30 35 -28 0 -30 3 -30 35 l0 35 65 0 65 0 0
-35z m1590 -70 c0 -33 -2 -35 -35 -35 -33 0 -35 2 -35 35 0 33 2 35 35 35 33
0 35 -2 35 -35z m-900 -140 l0 -35 -70 0 -70 0 0 35 0 35 70 0 70 0 0 -35z
m-760 -70 c0 -32 -2 -35 -30 -35 -28 0 -30 3 -30 35 0 32 2 35 30 35 28 0 30
-3 30 -35z m342 -47 c3 -7 2 -23 0 -36 -4 -18 -10 -22 -31 -20 -21 2 -27 9
-29 36 -3 30 -1 32 27 32 16 0 31 -5 33 -12z m208 -23 c0 -32 -2 -35 -30 -35
l-30 0 0 -100 0 -100 -76 0 -76 0 4 -35 c4 -34 3 -35 -29 -35 -31 0 -33 -2
-33 -35 0 -32 2 -35 30 -35 28 0 30 -3 30 -35 0 -32 -2 -35 -30 -35 -28 0 -30
-3 -30 -35 l0 -35 105 0 105 0 0 -70 0 -70 30 0 c28 0 30 -3 30 -35 l0 -35
-65 0 -65 0 0 -30 c0 -28 -2 -30 -39 -30 -38 0 -39 -1 -37 -35 1 -33 0 -35
-31 -35 -32 0 -33 -1 -33 -40 0 -39 -1 -40 -35 -40 -32 0 -35 -2 -35 -30 0
-28 3 -30 35 -30 33 0 35 -2 35 -35 0 -33 -2 -35 -35 -35 -33 0 -35 -2 -35
-35 0 -32 -2 -35 -30 -35 -28 0 -30 3 -30 35 0 32 2 35 30 35 28 0 30 3 30 35
l0 35 -70 0 -71 0 3 68 3 67 38 3 37 3 0 65 0 64 -40 0 c-39 0 -40 1 -40 35 0
34 1 35 40 35 39 0 40 -1 40 -35 l0 -35 65 0 65 0 0 35 c0 32 2 35 30 35 25 0
30 4 30 25 0 14 0 28 0 33 0 4 -28 9 -62 12 -63 5 -63 5 -66 38 l-3 32 -70 0
-69 0 0 -35 0 -36 -63 3 c-62 3 -62 3 -65 36 -3 30 -1 32 27 32 l31 0 0 70 0
70 -30 0 c-28 0 -30 3 -30 35 0 32 2 35 30 35 28 0 30 -3 30 -35 0 -33 2 -35
34 -35 32 0 35 3 38 33 l3 32 103 3 102 3 0 34 c0 33 -2 35 -35 35 -32 0 -35
2 -35 30 0 27 -3 30 -30 30 -27 0 -30 -3 -30 -30 0 -28 -2 -30 -40 -30 l-40 0
0 65 0 65 70 0 70 0 0 -35 c0 -33 2 -35 35 -35 33 0 35 2 35 35 0 33 2 35 33
35 30 0 32 -2 32 -32 0 -31 2 -33 38 -36 l37 -3 0 105 0 106 65 0 65 0 0 -35z
m70 -106 l0 -69 -35 0 -35 0 0 69 c0 73 5 81 47 73 21 -4 23 -9 23 -73z m-620
-99 c0 -27 -3 -30 -30 -30 -27 0 -30 3 -30 30 0 27 3 30 30 30 27 0 30 -3 30
-30z m1870 0 c0 -27 3 -30 30 -30 28 0 30 -3 30 -35 l0 -35 -106 0 -105 0 3
33 c3 29 6 32 41 35 34 3 37 6 37 33 0 27 3 29 35 29 32 0 35 -2 35 -30z
m-420 -205 c0 -33 2 -35 35 -35 33 0 35 2 35 35 l0 35 175 0 175 0 0 -35 0
-35 -140 0 -140 0 0 -35 c0 -33 2 -35 34 -35 32 0 35 -3 38 -32 2 -28 8 -34
31 -36 l27 -3 0 -100 0 -99 -30 0 c-28 0 -30 -3 -30 -35 0 -33 -2 -35 -35 -35
-33 0 -35 2 -35 35 0 33 -2 35 -35 35 l-35 0 0 -75 0 -75 35 0 c32 0 35 -2 35
-30 0 -28 -3 -30 -35 -30 -33 0 -35 -2 -35 -35 0 -33 -2 -35 -35 -35 -33 0
-35 2 -35 35 0 33 2 35 35 35 32 0 35 2 35 30 0 29 0 29 -67 32 l-68 3 0 35
c0 32 3 35 33 38 29 3 32 6 32 38 0 32 -2 34 -35 34 -32 0 -35 2 -35 30 l0 30
70 0 70 0 0 34 c0 32 -3 35 -32 38 -29 3 -33 7 -36 34 -3 26 1 32 20 36 38 7
48 -1 48 -38 l0 -34 70 0 70 0 0 35 c0 28 -4 35 -19 35 -37 0 -51 12 -51 41
l0 29 -69 0 -70 0 -3 -32 c-3 -29 -6 -33 -33 -33 l-30 0 -3 103 -3 102 36 0
c33 0 35 -2 35 -35z m-340 -134 c0 -33 -14 -41 -70 -41 -56 0 -70 8 -70 41 l0
29 70 0 70 0 0 -29z m200 -486 c0 -32 -2 -35 -30 -35 -28 0 -30 3 -30 35 0 32
2 35 30 35 28 0 30 -3 30 -35z m-690 -70 c0 -33 -2 -35 -35 -35 -33 0 -35 2
-35 35 0 33 2 35 35 35 33 0 35 -2 35 -35z m760 -140 l0 -105 35 0 c32 0 35
-2 35 -30 l0 -30 -100 0 -100 0 0 30 0 30 -70 0 -70 0 0 70 0 70 70 0 70 0 0
-70 0 -70 30 0 30 0 0 105 0 105 35 0 35 0 0 -105z m690 0 c0 -33 -2 -35 -35
-35 -33 0 -35 2 -35 35 0 33 2 35 35 35 33 0 35 -2 35 -35z m279 -65 l-1 -100
-104 0 -104 0 0 100 0 100 105 0 106 0 -2 -100z m-1379 -70 l0 -30 -70 0 -70
0 0 -40 c0 -39 1 -40 35 -40 32 0 35 -2 35 -30 0 -28 -3 -30 -35 -30 -32 0
-35 2 -35 30 l0 30 -65 0 -65 0 0 40 0 40 65 0 65 0 0 30 0 30 70 0 70 0 0
-30z m200 -70 l0 -40 -65 0 -65 0 0 -30 c0 -28 3 -30 35 -30 l35 0 0 -70 0
-70 -70 0 -70 0 0 35 c0 33 2 35 35 35 33 0 35 2 35 35 0 33 -2 35 -35 35 -32
0 -35 2 -35 30 0 28 3 30 35 30 33 0 35 2 35 33 0 19 3 37 7 40 3 4 33 7 65 7
l58 0 0 -40z m1040 -205 c0 -33 -2 -35 -35 -35 -33 0 -35 2 -35 35 0 33 2 35
35 35 33 0 35 -2 35 -35z"/>
<path d="M2100 2625 c0 -32 2 -35 30 -35 28 0 30 3 30 35 0 32 -2 35 -30 35
-28 0 -30 -3 -30 -35z"/>
<path d="M1750 2420 c0 -28 3 -30 35 -30 32 0 35 2 35 30 0 28 -3 30 -35 30
-32 0 -35 -2 -35 -30z"/>
<path d="M2160 2380 l0 -70 -30 0 c-28 0 -30 -3 -30 -35 0 -32 2 -35 30 -35
28 0 30 3 30 35 0 33 2 35 35 35 l35 0 0 70 0 70 -35 0 -35 0 0 -70z"/>
<path d="M2230 2075 c0 -33 2 -35 35 -35 33 0 35 2 35 35 0 33 -2 35 -35 35
-33 0 -35 -2 -35 -35z"/>
<path d="M1480 1935 c0 -32 2 -35 30 -35 28 0 30 3 30 35 0 32 -2 35 -30 35
-28 0 -30 -3 -30 -35z"/>
<path d="M1680 1935 c0 -33 -2 -35 -35 -35 -33 0 -35 -2 -35 -35 0 -33 2 -35
35 -35 33 0 35 2 35 35 0 33 2 35 35 35 33 0 35 2 35 35 0 33 -2 35 -35 35
-33 0 -35 -2 -35 -35z"/>
<path d="M1750 1590 c0 -28 3 -30 35 -30 32 0 35 2 35 30 0 28 -3 30 -35 30
-32 0 -35 -2 -35 -30z"/>
<path d="M930 2420 c0 -27 3 -30 30 -30 27 0 30 3 30 30 0 27 -3 30 -30 30
-27 0 -30 -3 -30 -30z"/>
<path d="M510 1590 c0 -26 3 -30 29 -30 31 0 41 13 33 43 -3 11 -14 17 -33 17
-26 0 -29 -4 -29 -30z"/>
<path d="M300 1385 c0 -34 1 -35 40 -35 39 0 40 1 40 35 0 34 -1 35 -40 35
-39 0 -40 -1 -40 -35z"/>
<path d="M510 1040 c0 -28 -3 -30 -35 -30 -33 0 -35 -2 -35 -35 0 -33 2 -35
35 -35 33 0 35 2 35 34 0 32 3 35 32 38 26 3 32 7 33 31 1 24 -3 27 -32 27
-30 0 -33 -3 -33 -30z"/>
<path d="M2440 485 c0 -33 2 -35 35 -35 33 0 35 2 35 35 0 33 -2 35 -35 35
-33 0 -35 -2 -35 -35z"/>
<path d="M1402 2828 c3 -30 6 -33 38 -33 32 0 35 3 38 33 3 31 3 32 -38 32
-41 0 -41 -1 -38 -32z"/>
<path d="M2440 2625 l0 -235 240 0 240 0 0 235 0 235 -240 0 -240 0 0 -235z
m410 -5 l0 -170 -170 0 -170 0 0 170 0 170 170 0 170 0 0 -170z"/>
<path d="M2580 2625 l0 -105 100 0 100 0 0 105 0 105 -100 0 -100 0 0 -105z"/>
<path d="M650 2075 c0 -33 2 -35 35 -35 33 0 35 2 35 35 0 33 -2 35 -35 35
-33 0 -35 -2 -35 -35z"/>
<path d="M2780 1935 c0 -33 2 -35 35 -35 33 0 35 2 35 35 0 33 -2 35 -35 35
-33 0 -35 -2 -35 -35z"/>
<path d="M932 1248 c2 -28 7 -33 28 -33 21 0 26 5 28 33 3 30 1 32 -28 32 -29
0 -31 -2 -28 -32z"/>
<path d="M2868 1212 c-15 -3 -18 -15 -18 -73 l0 -69 -70 0 -70 0 0 -30 c0 -27
-3 -30 -30 -30 -28 0 -30 -3 -30 -35 0 -32 2 -35 30 -35 28 0 30 3 30 35 l0
35 70 0 70 0 0 30 c0 28 3 30 35 30 l35 0 0 69 c0 72 -8 83 -52 73z"/>
<path d="M1130 1040 c0 -28 -3 -30 -35 -30 -33 0 -35 -2 -35 -35 l0 -35 70 0
70 0 0 35 c0 33 2 35 35 35 32 0 35 2 35 30 l0 30 -70 0 -70 0 0 -30z"/>
<path d="M100 975 c0 -33 2 -35 35 -35 33 0 35 2 35 35 0 33 -2 35 -35 35 -33
0 -35 -2 -35 -35z"/>
<path d="M930 976 c0 -33 -2 -35 -37 -38 -36 -3 -38 -5 -38 -38 l0 -35 68 -3
67 -3 0 76 0 75 -30 0 c-28 0 -30 -3 -30 -34z"/>
<path d="M2857 934 c-4 -4 -7 -22 -7 -41 l0 -33 -70 0 -70 0 0 -30 0 -30 70 0
70 0 0 29 c0 26 4 30 33 33 29 3 32 6 32 38 0 30 -4 35 -25 38 -14 2 -29 0
-33 -4z"/>
<path d="M100 725 l0 -135 35 0 35 0 0 135 0 135 -35 0 -35 0 0 -135z"/>
<path d="M100 280 l0 -240 235 0 c217 0 235 1 235 18 1 9 2 117 3 239 l2 223
-237 0 -238 0 0 -240z m410 0 l0 -170 -170 0 -170 0 0 170 0 170 170 0 170 0
0 -170z"/>
<path d="M237 383 c-4 -3 -7 -51 -7 -105 l0 -98 105 0 105 0 0 105 0 105 -98
0 c-54 0 -102 -3 -105 -7z"/>
<path d="M650 215 l0 -175 100 0 100 0 0 70 0 70 -35 0 c-33 0 -35 -2 -35 -35
0 -32 -2 -35 -30 -35 l-30 0 0 140 0 140 -35 0 -35 0 0 -175z"/>
<path d="M930 145 c0 -32 2 -35 30 -35 28 0 30 -3 30 -35 0 -33 2 -35 35 -35
33 0 35 2 35 35 0 33 -2 35 -35 35 -33 0 -35 2 -35 35 0 32 -2 35 -30 35 -28
0 -30 -3 -30 -35z"/>
<path d="M2780 145 l0 -35 -65 0 -65 0 0 -35 0 -35 65 0 65 0 0 35 c0 33 2 35
35 35 33 0 35 2 35 35 0 33 -2 35 -35 35 -33 0 -35 -2 -35 -35z"/>
<path d="M1680 75 l0 -35 70 0 70 0 0 35 0 35 -70 0 -70 0 0 -35z"/>
</g>
</svg>
